<svg xmlns="http://www.w3.org/2000/svg" width="56" height="56" viewBox="0 0 56 56" fill="none">
  <path
    d="M21.0827 47.997C21.0687 48.0063 21.0967 47.9923 21.1294 47.9783C22.8202 47.1532 24.511 46.3281 26.2064 45.5123C26.3326 45.4517 26.4867 45.4191 26.6268 45.4191C30.7697 45.4144 34.9127 45.4144 39.0603 45.4144C39.3592 45.4144 39.6628 45.3958 39.957 45.3492C43.3199 44.8364 45.7861 41.9695 45.7861 38.5758C45.7861 34.371 45.7861 30.1662 45.7907 25.9567C45.7907 25.7889 45.8328 25.6117 45.9075 25.4579C46.3279 24.5722 46.7669 23.6911 47.2013 22.8101C47.4629 22.274 47.7244 21.7379 48 21.1692C38.9949 30.1429 30.0224 39.0839 21.0827 47.997ZM8 34.7019C8.00934 34.7066 8.01868 34.7113 8.02802 34.7206C16.9211 25.8262 25.8141 16.9317 34.7118 8.04195C34.6978 8.02797 34.6885 8.01398 34.6745 8C34.6044 8.03263 34.539 8.0606 34.4689 8.09323C33.1144 8.75053 31.7646 9.41714 30.4054 10.0651C30.2373 10.1444 30.0364 10.1956 29.8496 10.1956C25.7347 10.205 21.6198 10.2003 17.5002 10.205C17.0892 10.205 16.6782 10.2329 16.2718 10.2982C12.9463 10.825 10.5035 13.6919 10.5035 17.0576C10.5035 21.1459 10.5035 25.2341 10.4988 29.3177C10.4988 29.4716 10.4615 29.6347 10.3914 29.7746C9.68146 31.2383 8.96217 32.7021 8.24288 34.1659C8.16347 34.343 8.08407 34.5201 8 34.7019ZM26.6548 24.1293C27.1172 24.1293 27.5329 24.078 27.9346 24.1386C29.7048 24.409 30.9566 25.3833 31.5824 27.0522C32.2177 28.7444 31.9094 30.3293 30.7043 31.6812C29.9477 32.525 29.107 33.2941 28.3036 34.0959C26.9724 35.4245 25.6366 36.7531 24.3055 38.077C22.0168 40.3612 19.7235 42.6407 17.4348 44.9249C17.3975 44.9622 17.3648 45.0042 17.3134 45.0601C17.3741 45.0648 17.4068 45.0695 17.4395 45.0741C18.766 45.0741 20.0925 45.0788 21.4143 45.0695C21.503 45.0695 21.6151 45.0089 21.6805 44.9436C23.5862 43.0556 25.4918 41.1677 27.3928 39.275C29.121 37.5549 30.8445 35.8301 32.5773 34.1099C34.1233 32.5762 34.9033 30.7256 34.8986 28.5439C34.894 25.318 32.7034 22.3626 29.6114 21.4209C29.4666 21.3789 29.3732 21.3929 29.2611 21.5048C28.4437 22.3299 27.617 23.1504 26.795 23.9755C26.7529 24.0174 26.7202 24.0594 26.6548 24.1293ZM29.574 31.56C29.5694 31.5413 29.5647 31.5274 29.56 31.5087C29.1443 31.5087 28.7193 31.5507 28.3129 31.4994C26.1177 31.2244 24.3989 29.2758 24.3849 27.0615C24.3802 25.7749 24.8192 24.6654 25.73 23.7517C27.22 22.2553 28.7193 20.7683 30.2139 19.2765C32.8762 16.6194 35.5385 13.9576 38.2008 11.2958C38.2522 11.2445 38.2943 11.1932 38.3737 11.1C38.2382 11.1 38.1588 11.1 38.0841 11.1C36.865 11.1 35.6413 11.1047 34.4222 11.0953C34.2307 11.0953 34.1 11.1559 33.9645 11.2865C30.5175 14.7361 27.0659 18.1857 23.6142 21.6353C22.2223 23.0292 21.4984 24.7213 21.3956 26.6746C21.3302 27.9379 21.5871 29.1546 22.1523 30.292C23.1098 32.2219 24.6324 33.5179 26.6829 34.1845C26.7623 34.2125 26.9024 34.1985 26.9584 34.1472C27.8412 33.2941 28.7053 32.4271 29.574 31.56ZM10.5502 38.9207C10.6249 38.8555 10.6763 38.8135 10.723 38.7669C13.9925 35.5037 17.2574 32.2359 20.5315 28.9728C20.6483 28.8562 20.6857 28.749 20.6483 28.5905C20.4288 27.5137 20.4334 26.4322 20.6483 25.3553C20.7137 25.029 20.8024 24.7027 20.8865 24.3531C20.8445 24.3904 20.8258 24.4044 20.8024 24.423C17.4208 27.798 14.0346 31.1777 10.6576 34.5574C10.5876 34.6274 10.5409 34.7486 10.5409 34.8465C10.5315 36.1424 10.5362 37.4383 10.5362 38.7296C10.5362 38.7809 10.5409 38.8368 10.5502 38.9207ZM35.4591 31.201C35.4965 31.1638 35.5385 31.1265 35.5759 31.0892C38.5838 28.0871 41.5964 25.085 44.5997 22.0782C44.6744 22.0036 44.7212 21.8731 44.7212 21.7705C44.7305 20.5026 44.7258 19.2346 44.7258 17.9713C44.7258 17.9153 44.7165 17.8547 44.7118 17.7615C44.6277 17.8407 44.5717 17.892 44.5203 17.9433C42.7922 19.6681 41.0687 21.3883 39.3405 23.1131C38.1448 24.3065 36.9538 25.4952 35.7581 26.6839C35.66 26.7771 35.6273 26.861 35.6506 27.0102C35.7207 27.4158 35.7721 27.8213 35.7954 28.2316C35.8468 29.2338 35.73 30.2174 35.4591 31.201Z"
    fill="#FF8114" />
  <path
    d="M21.0827 47.997C30.0224 39.0839 38.9949 30.1429 47.9953 21.1738C47.7151 21.7472 47.4582 22.2833 47.1966 22.8147C46.7669 23.6958 46.3279 24.5768 45.9028 25.4626C45.8328 25.6117 45.7861 25.7935 45.7861 25.9613C45.7814 30.1662 45.7814 34.371 45.7814 38.5804C45.7814 41.9741 43.3153 44.841 39.9524 45.3538C39.6581 45.4004 39.3545 45.4191 39.0556 45.4191C34.9127 45.4238 30.7697 45.4191 26.6221 45.4238C26.482 45.4238 26.3279 45.4564 26.2018 45.517C24.5063 46.3328 22.8155 47.1625 21.1247 47.983C21.0967 47.9923 21.0687 48.0016 21.0827 47.997Z"
    fill="#4A4A4A" />
  <path
    d="M8 34.7019C8.08407 34.5248 8.16347 34.343 8.25222 34.1659C8.96684 32.7021 9.6908 31.243 10.4007 29.7746C10.4661 29.6347 10.5082 29.4716 10.5082 29.3177C10.5128 25.2295 10.5128 21.1412 10.5128 17.0576C10.5128 13.6919 12.9556 10.825 16.2812 10.2982C16.6875 10.2329 17.0985 10.205 17.5096 10.205C21.6245 10.2003 25.7394 10.205 29.8589 10.1956C30.0458 10.1956 30.2466 10.1444 30.4148 10.0651C31.7739 9.41248 33.1238 8.75053 34.4783 8.09323C34.5437 8.0606 34.6137 8.03263 34.6838 8C34.6978 8.01398 34.7071 8.02797 34.7212 8.04195C25.8141 16.9317 16.9211 25.8262 8.02802 34.7159C8.01868 34.7113 8.00934 34.7066 8 34.7019Z"
    fill="#FF8114" />
  <path
    d="M26.6548 24.1293C26.7202 24.0547 26.7529 24.0128 26.7903 23.9755C27.6123 23.155 28.439 22.3346 29.2564 21.5048C29.3638 21.3929 29.4619 21.3789 29.6067 21.4209C32.6987 22.3672 34.8893 25.318 34.894 28.5439C34.8986 30.7256 34.1186 32.5716 32.5726 34.1099C30.8398 35.8254 29.1163 37.5549 27.3881 39.275C25.4872 41.1677 23.5815 43.0556 21.6758 44.9436C21.6105 45.0089 21.4984 45.0695 21.4096 45.0695C20.0831 45.0788 18.7567 45.0741 17.4348 45.0741C17.4021 45.0741 17.3695 45.0695 17.3087 45.0601C17.3601 44.9995 17.3928 44.9622 17.4302 44.925C19.7188 42.6407 22.0121 40.3612 24.3008 38.077C25.6319 36.7484 26.9678 35.4198 28.2989 34.0959C29.1023 33.2941 29.9477 32.5296 30.6997 31.6812C31.9047 30.3293 32.213 28.7444 31.5778 27.0522C30.9519 25.3833 29.7001 24.409 27.9299 24.1386C27.5329 24.078 27.1126 24.1293 26.6548 24.1293Z"
    fill="#4A4A4A" />
  <path
    d="M29.574 31.56C28.7053 32.4271 27.8412 33.2941 26.9631 34.1519C26.907 34.2032 26.7716 34.2171 26.6875 34.1892C24.6371 33.5179 23.1191 32.2266 22.1569 30.2967C21.5918 29.1592 21.3349 27.9426 21.4003 26.6792C21.503 24.726 22.227 23.0292 23.6189 21.64C27.0659 18.1904 30.5222 14.7454 33.9692 11.2911C34.1046 11.1559 34.2354 11.0953 34.4269 11.1C35.646 11.1093 36.8697 11.1047 38.0887 11.1047C38.1635 11.1047 38.2382 11.1047 38.3783 11.1047C38.2989 11.1979 38.2522 11.2538 38.2055 11.3005C35.5432 13.9623 32.8809 16.6194 30.2186 19.2812C28.724 20.7729 27.2293 22.2647 25.7347 23.7564C24.8239 24.6701 24.3802 25.7842 24.3895 27.0662C24.3989 29.2804 26.1224 31.229 28.3176 31.5041C28.7286 31.5553 29.149 31.5134 29.5647 31.5134C29.5647 31.5274 29.5694 31.5413 29.574 31.56Z"
    fill="#FF8114" />
  <path
    d="M10.5502 38.9207C10.5455 38.8322 10.5362 38.7809 10.5362 38.7296C10.5362 37.4337 10.5315 36.1377 10.5409 34.8465C10.5409 34.7486 10.5922 34.6274 10.6576 34.5574C14.0346 31.1777 17.4208 27.798 20.8024 24.423C20.8211 24.4044 20.8445 24.3857 20.8865 24.3531C20.8024 24.7027 20.7137 25.029 20.6483 25.3553C20.4288 26.4322 20.4241 27.5137 20.6483 28.5905C20.681 28.7537 20.6483 28.8562 20.5315 28.9728C17.262 32.2359 13.9925 35.5037 10.723 38.7669C10.6716 38.8135 10.6203 38.8555 10.5502 38.9207Z"
    fill="#4A4A4A" />
  <path
    d="M35.4591 31.201C35.7347 30.2174 35.8515 29.2292 35.7954 28.2316C35.7721 27.8213 35.7207 27.4158 35.6506 27.0102C35.6273 26.861 35.66 26.7771 35.7581 26.6839C36.9538 25.4952 38.1448 24.3018 39.3405 23.1131C41.0687 21.3883 42.7922 19.6681 44.5203 17.9433C44.5717 17.892 44.6277 17.8407 44.7118 17.7615C44.7212 17.8547 44.7258 17.9107 44.7258 17.9713C44.7258 19.2392 44.7305 20.5072 44.7212 21.7705C44.7212 21.8731 44.6698 22.0036 44.5997 22.0782C41.5918 25.085 38.5838 28.0871 35.5759 31.0892C35.5385 31.1265 35.4965 31.1638 35.4591 31.201Z"
    fill="#FF8114" />
</svg>
